<svg xmlns="http://www.w3.org/2000/svg" viewBox="0 0 24 24" width="24" height="24" fill="none" stroke="url(#g)" stroke-width="1.9" stroke-linecap="round" stroke-linejoin="round"><defs><linearGradient id="g" x1="0" y1="0" x2="24" y2="24" gradientUnits="userSpaceOnUse"><stop offset="0" stop-color="#6366f1"/><stop offset="1" stop-color="#06b6d4"/></linearGradient></defs><path d="M13 3H6.5a2 2 0 0 0-2 2v14a2 2 0 0 0 2 2H11"/><path d="M13 3l5 5v3"/><path d="M8 9.5h3.5"/><path d="M8 13h2.5"/><path d="M15.4 20.1a2.4 2.4 0 0 1 0-3.4l1.1-1.1"/><path d="M19.6 15.9a2.4 2.4 0 0 1 0 3.4l-1.1 1.1"/><path d="M16.4 18.6l2.2-2.2"/></svg>
